<svg xmlns="http://www.w3.org/2000/svg" xmlns:xlink="http://www.w3.org/1999/xlink" width="24" height="24" version="1.1" viewBox="0 0 24 24"><title>thumbs-up</title><desc>Created with Sketch.</desc><g id="Page-1" fill="none" fill-rule="evenodd" stroke="none" stroke-linecap="round" stroke-width="1"><g id="Artboard-4" stroke="#585858" stroke-width="2" transform="translate(-708.000000, -643.000000)"><g id="256" transform="translate(708.000000, 643.000000)"><path id="Path-188" stroke-linejoin="round" d="M6,14 C6,16.5 6.5,19 8,19 L16.9938335,19 C17.5495239,19 18.1819788,18.5956028 18.4072817,18.0949295 L20.8562951,12.6526776 C21.7640882,10.6353595 20.7154925,9 18.5092545,9 L15.5,9 C15.5,9 18.5,3 15,3 C12.5,3 11.5,9 8,9 C6.5,9 6,11.5 6,14 Z"/><path id="Path-189" d="M4,8.5 C4,8.5 3,11 3,14 C3,17 4,19.5 4,19.5"/></g></g></g></svg>